<?xml version="1.0" standalone="no"?><!DOCTYPE svg PUBLIC "-//W3C//DTD SVG 1.1//EN" "http://www.w3.org/Graphics/SVG/1.1/DTD/svg11.dtd"><svg t="1683815812563" class="icon" viewBox="0 0 1024 1024" version="1.1" xmlns="http://www.w3.org/2000/svg" p-id="21666" xmlns:xlink="http://www.w3.org/1999/xlink" width="200" height="200"><path d="M214.643997 766.5142a109.4656 158.464 15.023 1 0 82.149883-306.095988 109.4656 158.464 15.023 1 0-82.149883 306.095988Z" fill="#FF7373" p-id="21667"></path><path d="M148.5824 590.6944c-20.5312 85.0432 10.752 164.1472 69.9392 176.7424 13.824 2.9184 27.9552 1.9456 41.728-2.3552-175.1552-88.1664 38.912-303.0016 38.912-303.0016l-0.512-1.1264c-1.8944-0.5632-3.7888-1.024-5.6832-1.4336-59.1872-12.5952-123.8016 46.1312-144.384 131.1744z" fill="#EA5E5E" p-id="21668"></path><path d="M234.3936 784.4864c-6.3488 0-12.7488-0.6656-19.0464-1.9968-26.0096-5.5296-48.1792-21.8112-64.1024-47.0016-24.1664-38.4-30.7712-93.8496-17.6128-148.3776 22.4256-92.928 95.3344-156.8256 162.4576-142.592 26.0096 5.5296 48.1792 21.8112 64.1024 47.0016 24.1664 38.4 30.7712 93.8496 17.6128 148.3776-20.3264 84.1728-82.0736 144.5888-143.4112 144.5888z m42.0352-311.3472c-47.2064 0-95.8976 50.944-112.896 121.1904-11.264 46.592-6.144 93.2352 13.7216 124.7744 11.3664 18.0224 26.7264 29.5936 44.4928 33.3312 50.9952 10.9056 107.6224-42.9056 126.208-119.7568 11.264-46.592 6.144-93.2352-13.7216-124.7744-11.3664-18.0224-26.7264-29.5936-44.4928-33.3312-4.4032-0.9728-8.8576-1.4336-13.312-1.4336z" fill="#000F04" p-id="21669"></path><path d="M310.311986 694.518619a190.4128 132.4544 86.503 1 0 264.415538-16.15845 190.4128 132.4544 86.503 1 0-264.415538 16.15845Z" fill="#FF7373" p-id="21670"></path><path d="M535.1936 828.3648c-129.9968 37.4784-144.5376-44.032-154.9824-89.8048-16.0256-109.1584 26.88-203.6736 47.8208-241.9712-71.0656 6.5024-123.5456 93.1328-117.8624 196.1984 5.7856 105.0112 69.6832 187.2896 142.7456 183.7568 32.256-1.536 60.8768-19.5584 82.2784-48.1792z" fill="#EA5E5E" p-id="21671"></path><path d="M448.512 892.0064c-41.0624 0-80.896-23.4496-110.08-65.024a15.36 15.36 0 0 1 3.7888-21.4016 15.36 15.36 0 0 1 21.4016 3.7888c24.1664 34.5088 56.4736 53.2992 88.6272 51.8656 22.9888-1.1264 44.7488-12.3904 62.9248-32.512 30.976-34.3552 47.5136-89.6 44.3392-147.8144-5.3248-96.4608-62.2592-172.2368-126.6688-169.216-22.9888 1.1264-44.7488 12.3904-62.9248 32.512-30.976 34.304-47.5136 89.6-44.3392 147.8144 1.4848 27.3408 7.1168 53.4016 16.64 77.312 3.1232 7.8848-0.7168 16.7936-8.6016 19.968-7.8848 3.1232-16.7936-0.7168-19.968-8.6016-10.8032-27.0336-17.1008-56.32-18.7904-87.04-3.6352-66.2016 15.872-129.792 52.1728-170.0864 23.808-26.368 52.9408-41.1136 84.2752-42.6496 1.7408-0.1024 3.4816-0.1024 5.1712-0.1024 79.1552 0 147.5584 87.552 153.6512 198.3488 3.6352 66.2016-15.872 129.792-52.1728 170.0864-23.808 26.368-52.9408 41.1136-84.2752 42.6496-1.7408 0.0512-3.4816 0.1024-5.1712 0.1024z" fill="#000F04" p-id="21672"></path><path d="M562.31546 822.223061a191.744 131.5328 68.971 1 0 245.545147-94.398574 191.744 131.5328 68.971 1 0-245.545147 94.398574Z" fill="#FF7373" p-id="21673"></path><path d="M747.8272 956.0576c41.1648-12.544 67.8912-52.1216 75.6736-103.0656-84.48 118.3232-163.5328 28.7232-184.1152-17.3568-51.968-135.3216-15.6672-227.4816-15.6672-227.4816l-8.9088-11.52c-64 25.856-89.0368 120.4736-55.6544 216.7808 34.6112 99.9936 119.0912 163.84 188.672 142.6432z" fill="#EA5E5E" p-id="21674"></path><path d="M720.7424 975.36c-69.5296 0-143.8208-63.744-176.128-156.928-22.016-63.5392-20.5824-130.048 3.7888-177.9712 15.7696-30.976 39.7824-52.1728 69.4784-61.2352 77.2608-23.6032 170.4448 44.7488 207.7184 152.2688a15.4112 15.4112 0 0 1-9.472 19.5584c-7.9872 2.7648-16.7424-1.4848-19.5584-9.472-31.9488-92.1088-108.032-151.7568-169.728-132.9664-21.504 6.5536-39.168 22.3744-51.0464 45.7728-20.6848 40.6528-21.4528 98.2016-2.1504 154.0096 31.9488 92.1088 108.0832 151.7568 169.728 132.9664 44.032-13.4144 70.2464-64.9728 66.8672-131.3792a15.4112 15.4112 0 0 1 14.5408-16.128c8.3968-0.512 15.6672 6.0928 16.128 14.5408 4.1984 80.896-30.5664 144.64-88.576 162.304-10.2912 3.1744-20.8896 4.6592-31.5904 4.6592z" fill="#000F04" p-id="21675"></path><path d="M880.896 409.6512s-9.1648-105.7792-116.4288-146.8928-231.3216-73.5232-275.2-116.5312c7.424 69.0688 58.4192 207.616 181.9648 248.3712s191.0784 2.9184 209.664 15.0528z" fill="#BFE5BD" p-id="21676"></path><path d="M675.0208 313.7536c-69.1712-18.176-163.5328-124.1088-182.3232-145.8688 14.5408 73.1136 66.9184 189.8496 178.5856 226.6624 123.4944 40.7552 191.0784 2.9184 209.664 15.0528-19.6608-34.816-128.8192-75.6224-205.9264-95.8464z" fill="#A2DD9E" p-id="21677"></path><path d="M786.4832 429.4144c-32.1024 0-72.0384-4.4544-120.064-20.2752-125.0304-41.2672-183.552-178.8928-192.4096-261.3248-0.7168-6.4512 2.7136-12.6464 8.5504-15.4624 5.8368-2.816 12.8-1.6896 17.4592 2.8672 29.3888 28.7744 102.1952 54.016 179.3024 80.6912 11.5712 3.9936 23.2448 8.0384 34.9184 12.1344 7.9872 2.816 12.1856 11.5712 9.3696 19.6096a15.32928 15.32928 0 0 1-19.6096 9.3696c-11.6224-4.096-23.2448-8.0896-34.7648-12.0832-60.3136-20.8896-118.0672-40.9088-157.696-63.744 16.64 64.1536 63.0272 165.3248 164.4544 198.8096 78.6944 25.9584 134.144 18.6368 167.2704 14.2336 6.912-0.9216 13.1072-1.7408 18.6368-2.1504-7.8336-30.0032-31.7952-87.7056-103.0144-114.9952a15.3856 15.3856 0 0 1-8.8576-19.8656 15.36 15.36 0 0 1 19.8656-8.8576c114.944 44.0832 125.8496 155.1872 126.2592 159.8976a15.3088 15.3088 0 0 1-7.424 14.4896c-4.9152 2.9184-11.008 2.9184-15.872-0.0512-3.5328-1.024-15.7184 0.6144-25.5488 1.8944-15.5648 2.1504-35.84 4.8128-60.8256 4.8128z m86.016-6.912z" fill="#000F04" p-id="21678"></path><path d="M358.5024 163.9424s-74.0352 242.6368-111.616 272.0256c-37.5296 29.3376-75.1104 43.0592-81.3568 55.7568 28.16 0.9728 96.4608 0 96.4608 0v43.0592l42.24-33.28 62.1056 50.1248s-26.624-72.6528-31.8464-117.6576S409.6 163.9424 409.6 163.9424h-51.0976z" fill="#A2DD9E" p-id="21679"></path><path d="M366.3872 566.9888c-3.4304 0-6.8608-1.1264-9.6256-3.4304l-52.5824-42.4448-32.6144 25.7024a15.3856 15.3856 0 1 1-24.8832-12.0832v-27.4944c-21.9648 0.2048-61.4912 0.512-81.664-0.2048a15.3088 15.3088 0 0 1-12.6464-7.4752c-2.6624-4.4544-2.9184-9.984-0.6144-14.6944 5.3248-10.8032 18.0224-18.2272 37.2224-29.44 14.0288-8.192 31.4368-18.3296 48.4352-31.6416 23.2448-18.176 76.1856-165.5296 106.3424-264.3968a15.32928 15.32928 0 0 1 14.6944-10.8544H409.6c5.0176 0 9.6768 2.4064 12.544 6.5024 2.8672 4.096 3.584 9.3184 1.8944 14.0288-30.5664 85.7088-77.7728 232.96-74.2912 263.1168 4.9664 42.7008 30.7712 113.4592 31.0272 114.1248 2.3552 6.5024 0.1536 13.7728-5.4784 17.7664-2.6624 1.9968-5.7856 2.9184-8.9088 2.9184zM304.2816 486.144c3.4304 0 6.8096 1.1264 9.6256 3.4304l21.6064 17.4592c-6.8608-22.9888-13.7728-49.8688-16.2816-71.2192-4.6592-40.3968 48.128-197.376 68.6592-256.4608h-18.0736c-18.1248 58.368-76.8512 240.128-113.4592 268.7488-15.0528 11.776-29.952 21.0432-42.9056 28.7232 24.7296-0.1024 47.9744-0.4096 48.384-0.4096 4.096 0 8.0896 1.536 11.008 4.4032 2.9184 2.8672 4.5568 6.8096 4.5568 10.9568v11.4176l17.3568-13.6704c2.816-2.304 6.1952-3.3792 9.5232-3.3792z" fill="#000F04" p-id="21680"></path><path d="M430.4896 155.136s-12.4928 262.7072-106.3936 396.544c22.9376 23.2448 101.1712-14.8992 101.1712-14.8992l43.8272 35.2256s26.0608-18.7904 31.2832-41.216c31.4368 20.9408 53.1968 14.7968 53.1968 14.7968s-79.2576-66.56-90.7264-156.5696c-11.4688-90.0096 9.3696-240.6912 9.3696-240.6912l-41.728 6.8096z" fill="#A2DD9E" p-id="21681"></path><path d="M469.0944 587.3152c-3.4304 0-6.8096-1.1264-9.6256-3.3792l-36.352-29.2352c-27.1872 12.1856-84.6848 33.28-109.9264 7.7312a15.36 15.36 0 0 1-1.6384-19.6096c90.2656-128.6656 103.4752-385.8432 103.6288-388.4544a15.3856 15.3856 0 0 1 12.8512-14.4384L469.7088 133.12c4.8128-0.8192 9.728 0.768 13.2096 4.1472 3.4816 3.4304 5.1712 8.2432 4.5056 13.1072-0.2048 1.4848-20.4288 149.7088-9.3696 236.6464 10.5984 83.0976 84.6336 146.1248 85.3504 146.7392 4.352 3.6352 6.3488 9.4208 5.12 15.0016a15.31904 15.31904 0 0 1-10.8544 11.5712c-2.4576 0.6656-22.016 5.4784-50.0224-7.7824-10.6496 17.7664-27.2384 30.1568-29.6448 31.8464-2.6112 1.9456-5.7856 2.9184-8.9088 2.9184z m-43.8272-65.9456c3.4304 0 6.8608 1.1776 9.6256 3.3792l33.8944 27.2896c6.7584-6.5024 14.4896-15.7696 16.5888-24.7808 1.1264-4.9152 4.608-8.96 9.3184-10.8032 3.1744-1.28 6.656-1.3824 9.8816-0.512-23.6544-29.696-50.432-73.5232-56.9856-125.0816-9.1648-71.9872 1.536-179.3536 6.8096-224.1536l-9.3184 1.536c-3.6352 52.2752-22.016 252.672-97.5872 375.6544 17.2032-0.256 46.9504-9.3184 71.0144-21.0432 2.1504-0.9728 4.4544-1.4848 6.7584-1.4848z" fill="#000F04" p-id="21682"></path><path d="M498.2784 142.3872s47.9744 298.9056 154.368 409.2416c17.7152 13.4656 47.9744 35.9424 91.8016 50.6368-28.16 17.6128-53.1968 11.2128-53.1968 11.2128l9.3696 57.2928-73.0112-29.3376-6.2464 60.672-56.32-39.1168-42.8032 56.7296s38.6048-132.096 4.1472-262.2464C492.032 327.3216 453.4272 148.2752 453.4272 148.2752l44.8512-5.888z" fill="#A2DD9E" p-id="21683"></path><path d="M522.24 735.0784c-2.304 0-4.6592-0.512-6.8608-1.6384a15.42656 15.42656 0 0 1-7.8848-18.0224c0.3584-1.28 36.9152-129.7408 4.0448-254.0032-34.048-129.024-72.7552-308.1216-73.1136-309.9136-0.9216-4.1984 0-8.6016 2.4576-12.0832 2.4576-3.5328 6.2976-5.8368 10.5472-6.4l44.8512-5.888c8.2944-1.0752 15.8208 4.608 17.152 12.8 0.4608 2.9184 48.1792 293.888 149.4528 400.1792 15.9232 12.0832 44.8 33.6384 86.4256 47.5648 5.632 1.8944 9.6768 6.8608 10.3936 12.7488 0.7168 5.888-2.048 11.6736-7.1168 14.848-15.9744 9.984-31.3344 13.4656-43.1104 14.3872l6.3488 38.6048c0.8704 5.4784-1.2288 11.008-5.5296 14.4896-4.352 3.4816-10.1888 4.352-15.36 2.2528l-54.0672-21.76-4.1472 40.3968c-0.5632 5.4272-3.9424 10.1376-8.8576 12.3904s-10.7008 1.7408-15.1552-1.3312l-44.1856-30.72-33.8944 44.9536c-3.072 3.9936-7.68 6.144-12.3904 6.144z m42.8032-87.5008c3.0208 0 6.0928 0.8704 8.7552 2.7648l34.9696 24.2688 3.584-34.7648c0.512-4.8128 3.2256-9.0624 7.3216-11.5712 4.1472-2.5088 9.1648-2.9184 13.6704-1.0752l47.7184 19.2-4.9664-30.4128c-0.8192-5.12 0.9728-10.2912 4.8128-13.824 3.84-3.4816 9.1136-4.8128 14.1824-3.5328 0.1024 0.0512 0.9728 0.2048 2.4064 0.4096-24.7296-12.8-42.7008-26.4704-54.0672-35.1232-0.6144-0.4608-1.2288-1.024-1.792-1.5872-96.0512-99.584-144.6912-340.1216-156.0064-402.7904l-13.6704 1.792c10.3424 47.104 41.3696 186.624 69.2736 292.1984 20.0192 75.7248 16.3328 151.2448 9.1648 203.2128l2.304-3.0208c3.072-3.9936 7.68-6.144 12.3392-6.144z" fill="#000F04" p-id="21684"></path><path d="M255.744 141.4144s280.4224-14.6944 337.4592-62.9248c26.4192 43.0592 33.3824 63.9488 33.3824 63.9488s-225.7408 45.6704-370.8416 36.5056c-3.2768-16.9472 0-37.5296 0-37.5296z" fill="#CF9782" p-id="21685"></path><path d="M297.472 195.5328c-14.7456 0-29.0304-0.4096-42.7008-1.2288A15.36 15.36 0 0 1 240.64 181.8624c-3.7376-19.3536-0.256-41.8304-0.1024-42.8032 1.1264-7.168 7.1168-12.544 14.3872-12.9536 76.5952-3.9936 284.8256-22.4768 328.3456-59.3408 3.4304-2.9184 7.936-4.1472 12.3392-3.4304 4.4032 0.7168 8.3456 3.328 10.6496 7.1168 27.0336 44.032 34.56 66.2016 34.8672 67.1232a15.39072 15.39072 0 0 1-11.52 19.9168c-8.448 1.6896-189.952 38.0416-332.1344 38.0416z m-27.8016-31.2832c116.7872 4.6592 280.32-23.2448 335.104-33.3312-3.6864-7.6288-9.0624-17.8688-16.5888-30.8736C517.0688 138.24 326.2464 152.5248 269.7728 156.0064c-0.1024 2.56-0.1536 5.376-0.1024 8.2432z" fill="#000F04" p-id="21686"></path></svg>